# xmcd
#
# Track frame offsets: 
#        150
#        9388
#        19855
#        30718
#        40905
#        51872
#        59645
#        69629
#        82131
#        92312
#        105162
#        113301
#        125612
#        137503
#        150567
#        160556
#        167391
#        174261
#
# Disc length: 2402 seconds
#
# Revision: 3
# Processed by: cddbd v1.5.2PL0 Copyright (c) Steve Scherf et al.
# Submitted via: ExactAudioCopyFreeDBPlugin 1.0
#
DISCID=cf096012
DTITLE=Johnny Cash - All Aboard The Blue Train
DYEAR=1962
DGENRE=Trains
TTITLE0=Blue Train
TTITLE1=There You Go
TTITLE2=Train of Love
TTITLE3=Goodbye Little Darlin'
TTITLE4=(I Heard That) Lonesome Whistle
TTITLE5=Come in Stranger
TTITLE6=Rock Island Line
TTITLE7=Give My Love to Rose
TTITLE8=Hey, Porter!
TTITLE9=Folsom Prison Blues
TTITLE10=The Wreck of the Old '97
TTITLE11=So Doggone Lonesome
TTITLE12=Train of Love (bonus track - originally unissued alternate ta
TTITLE12=ke)
TTITLE13=Give My Love to Rose (bonus track - originally unissued alter
TTITLE13=nate take)
TTITLE14=Hey, Porter! (bonus track - originally unissued alternate tak
TTITLE14=e)
TTITLE15=Leave That Junk Alone (bonus track - originally unissued on S
TTITLE15=un Records)
TTITLE16=You're My Baby (Little Woolly Booger) (bonus yrack - original
TTITLE16=ly unissued, undubbed version)
TTITLE17=Brakeman's Blues (bonus track - incomplete take)
EXTD=Sun Entertainment Corporation
EXTT0=
EXTT1=
EXTT2=
EXTT3=
EXTT4=
EXTT5=
EXTT6=
EXTT7=
EXTT8=
EXTT9=
EXTT10=
EXTT11=
EXTT12=
EXTT13=
EXTT14=
EXTT15=
EXTT16=
EXTT17=
PLAYORDER=
